<svg id="Camada_1" data-name="Camada 1" xmlns="http://www.w3.org/2000/svg" viewBox="0 0 433.58 77.18"><defs><style>.cls-1{fill:#0071bc;stroke:#000;stroke-miterlimit:10;stroke-width:3px;}</style></defs><path class="cls-1" d="M52.5,63.48,43.75,79.7,5,79.66l49.64-72,58.55.06-17.07,72-36.82,0,4.73-16.22ZM69.27,49.86c1.89-5.52,6.87-23.9,8-27.8H75.67C74,25.2,64.32,42.82,60.3,49.85Z" transform="translate(-2.18 -5.28)"/><path class="cls-1" d="M150.93,63.57l-8.75,16.22-38.71,0,49.64-72,58.54,0-17.06,72-36.83,0,4.74-16.22ZM167.7,50c1.9-5.51,6.87-23.9,8.06-27.79H174.1c-1.65,3.13-11.35,20.76-15.37,27.78Z" transform="translate(-2.18 -5.28)"/><path class="cls-1" d="M287.36,79.92l-26.2,0a20.11,20.11,0,0,1,.95-4.87C254.55,80.11,243.93,81,235.19,81c-23.61,0-29.5-7.39-24.06-19.07l15.38-33.52c5.91-13,15.83-21.62,48.17-21.59,39.66,0,41.78,11.51,37.28,20.7l-1.65,3.46-37.3,0,3.07-6.38c1.66-3.67.24-4.76-4-4.76-3.06,0-5.19.53-7.32,5L246.54,63.66c-1.89,4,1.41,4.33,3.77,4.33,3.54,0,6.14-1.08,8-5.19l5-11h-5.9L264.27,38l42.73,0Z" transform="translate(-2.18 -5.28)"/><path class="cls-1" d="M373.59,8,340.24,80l-36.59,0L337,7.92Z" transform="translate(-2.18 -5.28)"/><path class="cls-1" d="M388.7,8l37.06,0-27,58L433,66l-9,14L355.58,80Z" transform="translate(-2.18 -5.28)"/></svg>