<svg id="Camada_1" data-name="Camada 1" xmlns="http://www.w3.org/2000/svg" viewBox="0 0 396.69 64.12"><defs><style>.cls-1{fill:#0071bc;stroke:#000;stroke-miterlimit:10;}</style></defs><path class="cls-1" d="M59.85,77l-8.06,13.8-35.71,0L61.86,29.46l54,.05-15.73,61.3-34,0L70.52,77ZM75.32,65.38c1.75-4.7,6.34-20.34,7.43-23.65H81.22C79.7,44.39,70.76,59.39,67.05,65.37Z" transform="translate(-15.08 -28.23)"/><path class="cls-1" d="M150.64,77.05l-8.07,13.8-35.7,0,45.78-61.26,54,.05L190.91,90.89l-34,0,4.37-13.8Zm15.47-11.59c1.75-4.69,6.34-20.34,7.43-23.65H172c-1.52,2.67-10.46,17.66-14.17,23.64Z" transform="translate(-15.08 -28.23)"/><path class="cls-1" d="M276.48,91l-24.17,0a16.42,16.42,0,0,1,.87-4.14c-7,4.32-16.77,5-24.82,5-21.77,0-27.21-6.29-22.19-16.22L220.34,47.1c5.46-11,14.61-18.4,44.44-18.37,36.58,0,38.53,9.8,34.38,17.62l-1.52,2.94-34.41,0,2.84-5.43c1.53-3.13.22-4-3.7-4-2.83,0-4.79.45-6.75,4.22l-16.8,33.13c-1.74,3.4,1.31,3.68,3.48,3.68,3.27,0,5.66-.91,7.41-4.41L254.29,67h-5.44l6.32-11.68,39.41,0Z" transform="translate(-15.08 -28.23)"/><path class="cls-1" d="M356,29.74,325.24,91,291.5,91l30.75-61.28Z" transform="translate(-15.08 -28.23)"/><path class="cls-1" d="M369.93,29.75l34.19,0L379.25,79.1l31.57,0-8.28,12L339.39,91Z" transform="translate(-15.08 -28.23)"/></svg>