<svg id="Camada_1" data-name="Camada 1" xmlns="http://www.w3.org/2000/svg" viewBox="0 0 262.44 104.38"><defs><style>.cls-1{fill:#2d91cd;stroke:#000;stroke-miterlimit:10;stroke-width:3px;}</style></defs><path class="cls-1" d="M32.14,81l-2.46,23.42H10.28L24.36,6,52.72,6,67,104.46l-19.79,0L44.46,81ZM42.86,64.31c-1.39-12.59-3.35-31.75-4.26-41.18h-.75c-.35,6.86-2.72,29-4,41.18Z" transform="translate(-8.55 -3.14)"/><path class="cls-1" d="M92.75,81.06l-2.46,23.42-19.39,0L85,6.05l28.36,0,14.23,98.45-19.79,0-2.7-23.43Zm10.72-16.69c-1.39-12.59-3.35-31.76-4.26-41.18h-.75c-.35,6.86-2.72,29-4,41.17Z" transform="translate(-8.55 -3.14)"/><path class="cls-1" d="M184,104.57h-14.3a51.59,51.59,0,0,1-.88-7.29c-3.14,6.91-9.49,8.75-15.61,8.75-15.39,0-19.71-11.42-19.69-27.5l0-46.32c0-15.09,6.31-27.58,25.18-27.56,22.77,0,25.05,16.52,25,26.44v4.43l-19.15,0V30.08c0-4.78-.58-9.2-5.86-9.2-4.35,0-6,3.16-6,9.58l0,50.45c0,6.7,2.16,9.16,5.95,9.16,4.63,0,6.21-3.57,6.21-11.67l0-14.11h-6.55l0-16,25.64,0Z" transform="translate(-8.55 -3.14)"/><path class="cls-1" d="M214.53,6.17l-.1,98.43-19,0,.09-98.43Z" transform="translate(-8.55 -3.14)"/><path class="cls-1" d="M226.45,6.18l19.05,0-.08,81.86,23.91,0-1.71,16.56-41.26,0Z" transform="translate(-8.55 -3.14)"/></svg>