<svg id="Camada_1" data-name="Camada 1" xmlns="http://www.w3.org/2000/svg" viewBox="0 0 4079.58 101.19"><defs><style>.cls-1{fill:#0071bc;stroke:#fff;stroke-miterlimit:10;stroke-width:3px;}</style></defs><path class="cls-1" d="M49,77.38,40.24,93.6l-38.71,0,49.64-72,58.55.06-17.07,72-36.83,0L60.56,77.4ZM65.77,63.77c1.89-5.52,6.87-23.9,8-27.8H72.17C70.51,39.11,60.82,56.73,56.8,63.76Z" transform="translate(1.33 -17.05)"/><path class="cls-1" d="M142.71,75l-1.66,3.57c-1.42,3-.24,4.44,3.3,4.44,2.84,0,5.2-.86,6.38-3.46,1.42-3.13,1.66-5.84-9.9-10.17C122,62.31,117.47,57.65,121.25,49s14.89-14.48,40.62-14.46c35.17,0,37.52,10.1,34.21,17.34l-.94,2.06-32.35,0L164.21,51c1.66-3.46,1.66-5.19-2.59-5.2-3.07,0-4.48,1-5.43,2.81-1.66,3.24-.48,4.87,7.55,7.9,22.18,8.35,27.37,12.9,23.35,22.74-3.55,8.44-13.24,15.46-44.16,15.43-35.65,0-37.53-9.88-34-18.1l.71-1.62Z" transform="translate(1.33 -17.05)"/><path class="cls-1" d="M230.29,75.07l-1.66,3.56c-1.42,3-.24,4.44,3.3,4.44,2.84,0,5.2-.86,6.38-3.45,1.42-3.14,1.66-5.84-9.91-10.18-18.88-7-23.36-11.71-19.57-20.36s14.89-14.48,40.62-14.46c35.17,0,37.52,10.1,34.21,17.34l-1,2.06-32.34,0,1.42-2.92c1.66-3.46,1.66-5.19-2.59-5.2-3.07,0-4.49,1-5.43,2.81-1.66,3.25-.48,4.87,7.54,7.91,22.19,8.35,27.38,12.9,23.35,22.74-3.54,8.43-13.23,15.46-44.16,15.43-35.64,0-37.52-9.88-34-18.1l.71-1.62Z" transform="translate(1.33 -17.05)"/><path class="cls-1" d="M379.73,56.27,370.51,76.6C364.36,90,348.06,94.87,321.62,94.84c-27.62,0-41.07-6.42-34.92-20.15l9.94-21.85c6.86-14.92,24.57-18.15,47.23-18.13C369.13,34.74,387.07,40.38,379.73,56.27Zm-45.55-5-12.07,26.5c-1.42,2.92-.47,4.33,3.54,4.33,4.48,0,6.37-1.83,7.56-4.32l12.06-26.6c1.18-2.38.48-4-4-4C337,47.15,335.36,48.88,334.18,51.25Z" transform="translate(1.33 -17.05)"/><path class="cls-1" d="M464.23,71.5l-1.89,4.32C457.6,86.53,453.11,95,416.52,94.93c-32.34,0-39.18-7.72-32.32-22.42l8-18.06c5.45-12.11,15.13-19.68,46.06-19.65,34.46,0,39.41,9.13,34.44,19.72l-1.42,3-34.23,0,2.61-5.73c1.42-3.25,1.18-4.55-2.6-4.55-4.25,0-5.43,1.62-6.85,4.32l-12.06,26.5c-1.18,2.48-.71,4.21,3.06,4.22,4,0,5-1.08,7.09-5.51l2.37-5.3Z" transform="translate(1.33 -17.05)"/><path class="cls-1" d="M492.83,35.72l36.59,0L502.45,94l-36.59,0Zm7.8-17,36.59,0-6.15,13.41-36.59,0Z" transform="translate(1.33 -17.05)"/><path class="cls-1" d="M606.33,78.34c-1.65,3.24-5.91,13.63-6.62,15.79l-35.65,0a36.79,36.79,0,0,1,1.19-4.22c-7.33,4-14.88,5.18-23.61,5.17-17.24,0-24.79-6.62-18.87-19.38,5.91-12.55,19.14-17.08,51.24-18.46,1.89-.1,4.49-.21,5.67-.21l2.6-5.73c1.66-3.68.48-4.65-3.3-4.65-3.54,0-5.43.86-7.09,4.21l-1.42,2.81-34,0,.95-2.06c5.91-12.76,18.66-16.64,44.16-16.61,26.2,0,43.19,3.82,36.33,18.53Zm-31.86-10.2c-.7,0-1.89.11-2.83.21-6.85.65-9.92,1.94-12.28,7.46-1.66,4,0,5.52,3.77,5.52,4.49,0,6.14-1.73,7.09-3.56Z" transform="translate(1.33 -17.05)"/><path class="cls-1" d="M702.65,71.72l-1.89,4.33c-4.73,10.7-9.22,19.14-45.82,19.1-32.34,0-39.18-7.71-32.32-22.42l8-18.06C636.11,42.56,645.79,35,676.72,35c34.47,0,39.41,9.13,34.45,19.73l-1.42,3-34.23,0,2.6-5.73c1.42-3.24,1.19-4.54-2.59-4.55-4.25,0-5.43,1.62-6.85,4.33L656.61,78.28c-1.18,2.49-.71,4.22,3.07,4.22,4,0,5-1.08,7.09-5.51l2.36-5.3Zm-35.9,21.61-5.43,3c5.43,1.3,11.8,3.69,11.79,7.91,0,6.92-10.63,10.81-26,10.79a104.94,104.94,0,0,1-21.72-2l5.67-8.33a38.43,38.43,0,0,0,9.44,1.2c2.6,0,5.2-.21,5.67-1.19s-.94-2.16-13.45-2.82l1.65-2.49,10.4-6.15Z" transform="translate(1.33 -17.05)"/><path class="cls-1" d="M794.24,78.52c-1.66,3.24-5.92,13.62-6.63,15.79l-35.64,0a37.18,37.18,0,0,1,1.18-4.22c-7.32,4-14.88,5.18-23.61,5.18-17.23,0-24.78-6.63-18.87-19.39,5.92-12.54,19.14-17.07,51.25-18.45,1.88-.11,4.48-.21,5.66-.21l2.6-5.73c1.66-3.68.48-4.65-3.3-4.66-3.54,0-5.43.86-7.08,4.22l-1.42,2.81-34,0,1-2.06C731.24,39,744,35.09,769.49,35.11c26.2,0,43.2,3.83,36.34,18.54ZM740.93,32.16l1.18-3.89c2.61-8.76,12-9.73,21.73-9.72,12.28,0,21.48,2.95,26.44,2.95,1.18,0,2.36.11,3.3-1.73l.24-.75,21,0-1,2.7c-3.55,10-11.57,10.81-20.78,10.8-11.1,0-20.3-3.7-26.44-3.71-1.88,0-2.83.76-3.54,2.6l-.47.75Zm21.45,36.16c-.71,0-1.89.1-2.83.21-6.85.64-9.92,1.94-12.29,7.45-1.65,4,0,5.52,3.77,5.53,4.49,0,6.14-1.73,7.09-3.57Z" transform="translate(1.33 -17.05)"/><path class="cls-1" d="M902.37,56.77,893.15,77.1C887,90.5,870.71,95.36,844.27,95.33c-27.62,0-41.07-6.42-34.92-20.15l9.93-21.85c6.86-14.92,24.57-18.15,47.23-18.13C891.77,35.23,909.71,40.87,902.37,56.77Zm-45.55-5L844.75,78.24c-1.41,2.92-.47,4.33,3.54,4.33,4.49,0,6.38-1.83,7.56-4.32l12.06-26.6c1.19-2.38.48-4-4-4C859.65,47.64,858,49.37,856.82,51.75Z" transform="translate(1.33 -17.05)"/><path class="cls-1" d="M964.9,90.58l-10.41,21.84-36.35,0,27.43-59.48c3.55-7.79,6.63-14.81,7.34-16.76l35.88,0a25.47,25.47,0,0,1-1.66,5.41c4.49-3.13,12.52-6.26,25-6.25,17.71,0,23.13,6.08,18.16,17L1018,79.48c-4.25,9-12.29,16-34.24,16C979.06,95.46,968.91,94.8,964.9,90.58Zm17.24-13.4,10.88-24c1.19-2.59.25-4.22-3.53-4.22-4.49,0-6.38,1.72-8,5.19L971.28,76.41c-1.42,3.25-.71,5.19,3.54,5.2C977.89,81.61,980.49,80.86,982.14,77.18Z" transform="translate(1.33 -17.05)"/><path class="cls-1" d="M1112.69,78.82c-1.66,3.24-5.92,13.62-6.63,15.79l-35.65,0a37.36,37.36,0,0,1,1.19-4.22c-7.32,4-14.88,5.18-23.61,5.17-17.24,0-24.78-6.62-18.87-19.38,5.91-12.54,19.14-17.07,51.24-18.45,1.89-.11,4.49-.21,5.67-.21l2.6-5.73c1.66-3.68.48-4.65-3.3-4.66-3.54,0-5.43.86-7.09,4.22l-1.41,2.81-34,0,1-2c5.91-12.76,18.66-16.64,44.16-16.62,26.2,0,43.2,3.83,36.34,18.54Zm-31.86-10.2c-.71,0-1.89.1-2.84.21-6.84.64-9.91,1.94-12.28,7.45-1.66,4,0,5.52,3.77,5.53,4.49,0,6.14-1.73,7.09-3.57Z" transform="translate(1.33 -17.05)"/><path class="cls-1" d="M1136.79,56.23c4.73-10.38,7.56-16.87,8.75-19.9l35.41,0a45.87,45.87,0,0,1-2.6,7.57c6.38-6.16,17-8.31,28.33-8.41l-9.22,19.9c-22.43-.67-25.74,4.52-28.58,10.68l-13.24,28.55-36.6,0Z" transform="translate(1.33 -17.05)"/><path class="cls-1" d="M1278.17,79c-1.66,3.25-5.92,13.63-6.63,15.79l-35.64,0a36.62,36.62,0,0,1,1.18-4.22c-7.32,4-14.88,5.18-23.61,5.17-17.23,0-24.78-6.62-18.87-19.38,5.92-12.55,19.14-17.08,51.25-18.45,1.88-.11,4.48-.22,5.66-.22l2.6-5.73c1.66-3.67.48-4.65-3.3-4.65-3.54,0-5.43.86-7.08,4.21l-1.42,2.81-34,0,1-2.05c5.91-12.76,18.67-16.65,44.16-16.62,26.2,0,43.2,3.82,36.34,18.53Zm-31.86-10.2c-.71,0-1.89.11-2.83.22-6.85.64-9.92,1.93-12.29,7.45-1.65,4,0,5.52,3.77,5.52,4.49,0,6.14-1.72,7.09-3.56Z" transform="translate(1.33 -17.05)"/><path class="cls-1" d="M1332.71,69.61l-4,9.52c-1.42,3.13.71,4.11,3.54,4.11,4.25,0,5.9-1.07,7.56-4.43l1.89-4,35.41,0-.95,2.7c-5,11.35-15.83,18.27-47.23,18.24-34.23,0-40.83-8.69-34.68-22.1l8.52-18.5c5.91-12.54,18-19.56,48.17-19.53,34.24,0,40.6,8.26,34.69,21.24l-5.92,12.76Zm16.06-10.69,2.13-4.65c2.13-4.44,2.6-6.49-2.59-6.5-4.73,0-5.91,1.3-8.27,6.81l-1.9,4.33Z" transform="translate(1.33 -17.05)"/><path class="cls-1" d="M1400.7,53c3.55-7.78,6.63-15,7.1-16.43l35.65,0a40.41,40.41,0,0,1-1.42,4.54c4.49-2.37,11.57-5.4,24.55-5.38,18.89,0,23.84,6,19.82,14.4l-20.58,44.77-36.83,0,18.93-41.2c.94-1.84,1.42-4.22-3.07-4.22-4.25,0-6.61,1.4-8.26,4.86L1417.9,94.9l-36.59,0Z" transform="translate(1.33 -17.05)"/><path class="cls-1" d="M1518.24,76.28l-1.66,3.57c-1.42,3-.24,4.43,3.31,4.43,2.83,0,5.19-.86,6.37-3.45,1.42-3.14,1.66-5.84-9.9-10.18-18.88-7.05-23.36-11.71-19.58-20.36s14.89-14.48,40.62-14.46c35.17,0,37.53,10.1,34.21,17.35l-.94,2-32.34,0,1.42-2.92c1.65-3.46,1.65-5.19-2.6-5.2-3.07,0-4.48,1-5.43,2.81-1.65,3.25-.48,4.87,7.55,7.91,22.18,8.35,27.37,12.9,23.35,22.74C1559.07,89,1549.38,96,1518.46,96c-35.65,0-37.53-9.88-34-18.1l.71-1.62Z" transform="translate(1.33 -17.05)"/><path class="cls-1" d="M1614.09,69.88l-4,9.51c-1.41,3.14.71,4.11,3.54,4.12,4.25,0,5.9-1.08,7.56-4.43l1.89-4,35.41,0-.94,2.7c-5,11.36-15.84,18.27-47.23,18.24-34.23,0-40.84-8.69-34.69-22.1l8.52-18.49c5.91-12.54,18-19.57,48.18-19.54,34.23,0,40.59,8.26,34.68,21.24l-5.92,12.76Zm16.06-10.7,2.13-4.65c2.13-4.43,2.6-6.49-2.59-6.49-4.72,0-5.9,1.29-8.27,6.81l-1.89,4.32Z" transform="translate(1.33 -17.05)"/><path class="cls-1" d="M1808.18,20l-27.44,59.26c-2.84,6.27-5.92,13.08-6.86,16l-35.89,0a22.39,22.39,0,0,1,1.66-5c-7.32,4.32-14.17,5.94-24.55,5.93-19.13,0-23.37-7.05-18.64-17.54l11.59-25.31c4.26-9,12.3-17.29,34.49-17.27,9.2,0,17,1.64,19.58,4.45l9.47-20.55Zm-63.77,34.12-11.12,23.8c-1.18,2.48-.71,4.54,3.77,4.54,4,0,6.14-1.18,7.56-4.21l11.12-24.11c1.42-3.25,0-4.33-3.77-4.34C1748.43,49.77,1746.06,50.74,1744.41,54.09Z" transform="translate(1.33 -17.05)"/><path class="cls-1" d="M1834.33,70.08l-4,9.52c-1.42,3.14.7,4.11,3.54,4.11,4.25,0,5.9-1.07,7.55-4.42l1.9-4,35.41,0-1,2.7c-5,11.36-15.83,18.27-47.23,18.24-34.23,0-40.83-8.69-34.68-22.1l8.51-18.49c5.92-12.55,18-19.57,48.18-19.54,34.23,0,40.6,8.26,34.68,21.24l-5.91,12.76Zm16.06-10.69,2.13-4.65c2.13-4.44,2.61-6.49-2.59-6.5-4.72,0-5.9,1.3-8.27,6.81l-1.89,4.33Z" transform="translate(1.33 -17.05)"/><path class="cls-1" d="M1948.33,91.5l-10.41,21.85-36.35,0L1929,53.84c3.54-7.79,6.62-14.82,7.33-16.77l35.88,0a25.65,25.65,0,0,1-1.66,5.41c4.49-3.14,12.52-6.27,25-6.26,17.71,0,23.13,6.08,18.16,17l-12.3,27.14c-4.25,9-12.29,16-34.24,16C1962.49,96.38,1952.34,95.73,1948.33,91.5Zm17.24-13.4,10.89-24c1.18-2.6.24-4.22-3.54-4.23-4.49,0-6.38,1.73-8,5.19l-10.18,22.28c-1.41,3.24-.71,5.19,3.54,5.19C1961.32,82.54,1963.92,81.78,1965.57,78.1Z" transform="translate(1.33 -17.05)"/><path class="cls-1" d="M2096.12,79.74c-1.66,3.24-5.92,13.63-6.63,15.79l-35.64,0a36.62,36.62,0,0,1,1.18-4.22c-7.32,4-14.88,5.18-23.61,5.17-17.23,0-24.78-6.62-18.87-19.38,5.91-12.55,19.14-17.08,51.24-18.46,1.89-.1,4.49-.21,5.67-.21l2.6-5.73c1.66-3.67.48-4.65-3.3-4.65-3.54,0-5.43.86-7.08,4.21L2060.26,55l-34,0,1-2.06c5.91-12.76,18.66-16.64,44.16-16.61,26.2,0,43.2,3.82,36.34,18.53Zm-31.86-10.2c-.71,0-1.89.11-2.84.22-6.84.64-9.91,1.93-12.28,7.45-1.66,4,0,5.52,3.77,5.52,4.49,0,6.14-1.73,7.09-3.56Z" transform="translate(1.33 -17.05)"/><path class="cls-1" d="M2123.07,37.25h12l5.67-12,36.12,0-5.67,12,12.51,0L2177.35,51h-12.51l-13.25,27.36c-1.18,2.59.47,3.46,6.61,3.46.71,0,3.78,0,5.19-.1l-6.15,13.3a163.73,163.73,0,0,1-19.83,1.07c-22.42,0-29-4.36-24.54-14.09l14.91-31h-11.1Z" transform="translate(1.33 -17.05)"/><path class="cls-1" d="M2196.24,37.32l36.59,0-27,58.29-36.59,0Zm7.81-17,36.59,0-6.15,13.4-36.59,0Z" transform="translate(1.33 -17.05)"/><path class="cls-1" d="M2239,53.8c3.55-7.78,6.63-15,7.1-16.43l35.65,0a40.41,40.41,0,0,1-1.42,4.54c4.49-2.37,11.57-5.4,24.55-5.39,18.89,0,23.84,6,19.82,14.41l-20.58,44.77-36.83,0,18.93-41.2c.94-1.84,1.42-4.22-3.07-4.23-4.25,0-6.61,1.4-8.26,4.86l-18.69,40.56-36.59,0Z" transform="translate(1.33 -17.05)"/><path class="cls-1" d="M2407.24,80c-1.65,3.25-5.91,13.63-6.62,15.79l-35.65,0a36.79,36.79,0,0,1,1.19-4.22c-7.33,4-14.88,5.18-23.62,5.17-17.23,0-24.78-6.62-18.86-19.38,5.91-12.55,19.13-17.08,51.24-18.45,1.89-.11,4.49-.22,5.67-.21l2.6-5.74c1.66-3.67.48-4.65-3.3-4.65-3.54,0-5.43.86-7.09,4.21l-1.42,2.81-34,0,1-2c5.91-12.76,18.66-16.65,44.16-16.62,26.2,0,43.19,3.83,36.33,18.53Zm-31.86-10.2c-.71,0-1.89.11-2.83.22-6.85.64-9.92,1.94-12.28,7.45-1.66,4,0,5.52,3.77,5.52,4.48,0,6.14-1.72,7.08-3.56Z" transform="translate(1.33 -17.05)"/><path class="cls-1" d="M2503.56,73.42l-1.89,4.32c-4.73,10.71-9.23,19.14-45.82,19.11-32.34,0-39.18-7.72-32.32-22.43l8-18.06c5.44-12.11,15.12-19.67,46.05-19.64,34.47,0,39.41,9.12,34.45,19.72l-1.42,3-34.23,0,2.6-5.74c1.42-3.24,1.18-4.54-2.59-4.54-4.25,0-5.43,1.61-6.85,4.32L2457.52,80c-1.18,2.49-.71,4.22,3.07,4.22,4,0,5-1.07,7.08-5.51l2.37-5.3ZM2467.66,95l-5.43,3c5.42,1.31,11.8,3.69,11.79,7.91,0,6.93-10.63,10.81-26,10.8a105.65,105.65,0,0,1-21.72-2l5.67-8.33a38,38,0,0,0,9.44,1.2c2.6,0,5.2-.21,5.67-1.18s-.94-2.17-13.45-2.83l1.65-2.48,10.4-6.16Z" transform="translate(1.33 -17.05)"/><path class="cls-1" d="M2595.15,80.21c-1.66,3.24-5.92,13.63-6.63,15.79l-35.65,0a36.79,36.79,0,0,1,1.19-4.22c-7.32,4-14.88,5.18-23.61,5.17-17.24,0-24.78-6.62-18.87-19.39,5.91-12.54,19.14-17.07,51.24-18.45,1.89-.1,4.49-.21,5.67-.21l2.6-5.73c1.66-3.68.48-4.65-3.3-4.65-3.54,0-5.43.86-7.09,4.21l-1.41,2.81-34,0,.95-2.06c5.91-12.76,18.66-16.64,44.16-16.62,26.2,0,43.2,3.83,36.34,18.54Zm-53.31-46.35L2543,30c2.61-8.76,12.05-9.72,21.73-9.71,12.27,0,21.48,2.94,26.44,2.94,1.18,0,2.36.11,3.3-1.73l.24-.75,21,0-.95,2.7c-3.55,10-11.58,10.81-20.78,10.8-11.1,0-20.3-3.7-26.44-3.7-1.89,0-2.83.75-3.54,2.59l-.47.76ZM2563.29,70c-.71,0-1.89.11-2.84.21-6.84.65-9.91,1.94-12.28,7.46-1.66,4,0,5.52,3.77,5.52,4.49,0,6.14-1.73,7.09-3.56Z" transform="translate(1.33 -17.05)"/><path class="cls-1" d="M2703.28,58.46l-9.22,20.33c-6.15,13.41-22.45,18.26-48.89,18.24-27.62,0-41.07-6.43-34.92-20.16L2620.19,55c6.86-14.93,24.57-18.16,47.23-18.13C2692.68,36.92,2710.62,42.56,2703.28,58.46Zm-45.55-5-12.07,26.49c-1.42,2.92-.47,4.33,3.54,4.33,4.48,0,6.37-1.83,7.56-4.32l12.06-26.6c1.18-2.38.48-4-4-4C2660.56,49.33,2658.91,51.06,2657.73,53.44Z" transform="translate(1.33 -17.05)"/><path class="cls-1" d="M2816.57,80.42c-1.65,3.24-5.91,13.62-6.62,15.79l-35.65,0a39.26,39.26,0,0,1,1.18-4.21c-7.32,4-14.87,5.17-23.61,5.17-17.23,0-24.78-6.63-18.86-19.39,5.91-12.54,19.13-17.07,51.24-18.45,1.89-.1,4.49-.21,5.67-.21l2.6-5.73c1.65-3.68.47-4.65-3.3-4.66-3.54,0-5.43.86-7.09,4.22l-1.42,2.81-34,0,.94-2.06c5.92-12.76,18.67-16.64,44.16-16.62,26.21,0,43.2,3.83,36.34,18.54Zm-31.86-10.2c-.71,0-1.89.11-2.83.21-6.85.65-9.92,1.94-12.28,7.46-1.66,4,0,5.51,3.77,5.52,4.48,0,6.14-1.73,7.08-3.57Z" transform="translate(1.33 -17.05)"/><path class="cls-1" d="M2909.33,91.76c-6.62,14.49-10.64,23.25-50.06,23.21-37.3,0-40.6-8.37-37.05-16.26l.23-.54,36.59,0-.23.65c-.71,2.16-.24,3.79,3.54,3.79,4.25,0,5.66-.64,7.79-4.86L2874.4,89c-6.14,3.89-14.41,5.39-23.14,5.39-21.72,0-23.84-8.25-19.11-18.3l10.41-22.39c4.26-9,12.76-16.65,32.59-16.63,10.39,0,17.94,1.86,20.54,5.86a27.38,27.38,0,0,1,4-5l34.94,0c-2.83,5.3-5.2,10.71-9.22,19.25Zm-30.89-36.71-9.7,21.2c-1.42,3.13.47,4.22,4,4.22s5.91-1.18,7.32-4.32l9.7-21.3c.71-1.73.72-4-3.77-4C2882,50.84,2879.86,52,2878.44,55.05Z" transform="translate(1.33 -17.05)"/><path class="cls-1" d="M3006.83,91.85c-6.63,14.49-10.65,23.25-50.07,23.21-37.3,0-40.6-8.37-37.05-16.26l.24-.54,36.59,0-.24.65c-.71,2.16-.24,3.79,3.54,3.79,4.25,0,5.67-.64,7.8-4.86l4.25-8.76c-6.14,3.89-14.4,5.4-23.14,5.39-21.72,0-23.83-8.25-19.1-18.3l10.41-22.39c4.25-9,12.76-16.65,32.59-16.63,10.39,0,17.94,1.86,20.53,5.86a27.37,27.37,0,0,1,4-5l34.94,0c-2.84,5.3-5.2,10.71-9.23,19.25Zm-30.89-36.71-9.7,21.2c-1.42,3.14.47,4.22,4,4.22s5.9-1.18,7.32-4.32l9.7-21.3c.71-1.73.71-4-3.77-4C2979.48,50.93,2977.36,52.12,2975.94,55.14Z" transform="translate(1.33 -17.05)"/><path class="cls-1" d="M3036.37,58c4.73-10.38,7.57-16.87,8.75-19.89l35.41,0a46.18,46.18,0,0,1-2.6,7.57c6.38-6.16,17-8.31,28.33-8.41L3097,57.21c-22.43-.67-25.74,4.52-28.58,10.68l-13.24,28.55-36.59,0Z" transform="translate(1.33 -17.05)"/><path class="cls-1" d="M3137.62,71.31l-4,9.51c-1.42,3.14.7,4.12,3.54,4.12,4.25,0,5.9-1.08,7.56-4.43l1.89-4,35.41,0-.95,2.71c-5,11.35-15.83,18.26-47.23,18.23-34.23,0-40.83-8.69-34.68-22.1l8.51-18.49c5.92-12.54,18-19.56,48.18-19.54,34.23,0,40.6,8.27,34.68,21.24l-5.91,12.76Zm16.06-10.7,2.13-4.65c2.13-4.43,2.61-6.49-2.59-6.49-4.72,0-5.9,1.29-8.27,6.81l-1.89,4.32Z" transform="translate(1.33 -17.05)"/><path class="cls-1" d="M3224.72,77.88l-1.66,3.57c-1.42,3-.24,4.43,3.3,4.44,2.84,0,5.2-.86,6.38-3.46,1.42-3.13,1.66-5.84-9.9-10.18-18.88-7-23.36-11.7-19.58-20.35s14.89-14.49,40.62-14.46c35.17,0,37.52,10.09,34.21,17.34l-.94,2-32.34,0,1.42-2.92c1.65-3.46,1.65-5.19-2.6-5.19-3.07,0-4.48,1-5.43,2.81-1.65,3.24-.48,4.86,7.55,7.9,22.18,8.35,27.37,12.9,23.35,22.74-3.55,8.44-13.24,15.46-44.16,15.43-35.65,0-37.53-9.88-34-18.1l.71-1.62Z" transform="translate(1.33 -17.05)"/><path class="cls-1" d="M3312.3,78l-1.66,3.57c-1.42,3-.24,4.44,3.3,4.44,2.84,0,5.2-.86,6.38-3.46,1.42-3.13,1.66-5.84-9.91-10.17-18.87-7-23.36-11.71-19.57-20.36s14.89-14.48,40.62-14.46c35.17,0,37.52,10.1,34.21,17.34l-.94,2.06-32.35,0L3333.8,54c1.66-3.46,1.66-5.2-2.59-5.2-3.07,0-4.48,1-5.43,2.81-1.66,3.24-.48,4.87,7.55,7.9,22.18,8.35,27.37,12.9,23.35,22.74-3.55,8.44-13.24,15.46-44.16,15.43-35.65,0-37.53-9.88-34-18.1l.71-1.62Z" transform="translate(1.33 -17.05)"/><path class="cls-1" d="M3388.34,38.44l36.59,0-27,58.29-36.59,0Zm7.81-17,36.59,0-6.15,13.4-36.59,0Z" transform="translate(1.33 -17.05)"/><path class="cls-1" d="M3472.62,38.52c-3.79,11.57-10.66,33.42-13,40.77H3461c5.44-9,16.31-26.49,25.53-40.76l37.77,0-46.56,58.26-50.51,0,6.9-58.31Z" transform="translate(1.33 -17.05)"/><path class="cls-1" d="M3553.08,71.7l-4,9.51c-1.42,3.14.71,4.12,3.54,4.12,4.25,0,5.9-1.08,7.56-4.43l1.89-4,35.41,0-.95,2.71c-5,11.35-15.83,18.27-47.23,18.24-34.23,0-40.83-8.7-34.68-22.11l8.52-18.49c5.91-12.54,18-19.56,48.17-19.53,34.23,0,40.6,8.26,34.68,21.23l-5.91,12.76ZM3569.15,61l2.12-4.65c2.13-4.43,2.61-6.49-2.59-6.49-4.72,0-5.9,1.29-8.26,6.81l-1.9,4.32Z" transform="translate(1.33 -17.05)"/><path class="cls-1" d="M3655.56,38.69l36.59,0-27,58.29-36.59,0Zm7.81-17,36.59,0-6.15,13.41-36.59,0Z" transform="translate(1.33 -17.05)"/><path class="cls-1" d="M3698.27,55.17c3.55-7.78,6.63-15,7.1-16.43l35.65,0a40.41,40.41,0,0,1-1.42,4.54c4.49-2.37,11.57-5.4,24.55-5.38,18.89,0,23.84,6,19.82,14.4L3763.39,97.1l-36.83,0,18.93-41.2c.94-1.84,1.42-4.22-3.07-4.22-4.25,0-6.61,1.4-8.26,4.86l-18.69,40.55-36.59,0Z" transform="translate(1.33 -17.05)"/><path class="cls-1" d="M3776.61,97.12l34.77-75.27,36.59,0L3813.2,97.15Z" transform="translate(1.33 -17.05)"/><path class="cls-1" d="M3853.38,38.88l36.59,0L3863,97.2l-36.59,0Zm7.81-17,36.59,0-6.15,13.41-36.59,0Z" transform="translate(1.33 -17.05)"/><path class="cls-1" d="M3896.1,55.36c3.55-7.79,6.62-15,7.09-16.44l35.65,0a40.41,40.41,0,0,1-1.42,4.54c4.49-2.38,11.57-5.4,24.56-5.39,18.88,0,23.83,6,19.81,14.41l-20.58,44.77-36.82,0,18.92-41.2c1-1.83,1.42-4.21-3.07-4.22-4.24,0-6.61,1.4-8.26,4.86l-18.69,40.55-36.59,0Z" transform="translate(1.33 -17.05)"/><path class="cls-1" d="M4021.9,72.14l-4,9.52c-1.42,3.13.7,4.11,3.54,4.11,4.25,0,5.9-1.08,7.56-4.43l1.89-4,35.41,0-1,2.71c-5,11.35-15.83,18.27-47.23,18.24-34.23,0-40.83-8.7-34.68-22.11l8.51-18.49c5.92-12.54,18-19.56,48.18-19.53,34.23,0,40.6,8.26,34.68,21.23l-5.91,12.76ZM4038,61.44l2.13-4.65c2.13-4.43,2.61-6.48-2.59-6.49-4.72,0-5.9,1.29-8.27,6.81l-1.89,4.32Z" transform="translate(1.33 -17.05)"/></svg>