<svg id="Camada_1" data-name="Camada 1" xmlns="http://www.w3.org/2000/svg" viewBox="0 0 1925 148"><defs><style>.cls-1{fill:#174967;stroke:#000;stroke-miterlimit:10;stroke-width:3px;}</style></defs><path class="cls-1" d="M32.08,87.83l-2.46,23.42-19.4,0L24.3,12.82l28.36,0,14.23,98.45-19.79,0L44.4,87.84ZM42.8,71.14C41.41,58.55,39.45,39.39,38.54,30h-.75c-.35,6.86-2.72,29-4,41.17Z"/><path class="cls-1" d="M90.29,86.14v3.64c0,4.3.88,7.86,4.84,7.86,2.93,0,4.41-1.84,4.41-6s-1-7.15-10.24-13C77.64,71.27,73,65.66,73,54.39c0-14.2,7.85-22,22.32-21.94,17.42,0,22.23,9.54,22.22,22.69v3.31l-17.57,0V53.72c0-4.91-1.35-6.63-4.21-6.63s-4.12,2.09-4.12,5.63,1.59,5.45,8.3,9.58c14.44,8.91,18.76,15.15,18.75,26.71,0,15.2-6.79,23.55-23.64,23.53-20,0-23-12.32-23-23.54V86.12Z"/><path class="cls-1" d="M143.5,86.19v3.64c0,4.3.88,7.86,4.85,7.86,2.92,0,4.4-1.84,4.4-6s-1-7.15-10.24-13c-11.66-7.37-16.32-13-16.31-24.25,0-14.2,7.85-22,22.32-21.94,17.42,0,22.23,9.54,22.22,22.69V58.5l-17.57,0V53.77c0-4.91-1.35-6.63-4.2-6.63s-4.12,2.09-4.13,5.63,1.59,5.45,8.3,9.58c14.44,8.91,18.77,15.15,18.75,26.71,0,15.21-6.79,23.55-23.64,23.53-20,0-23-12.32-23-23.54V86.17Z"/><path class="cls-1" d="M228,58.1l0,29.18c0,17.15-9.26,25.38-24.9,25.37-15.92,0-24.36-8.45-24.35-25.41l0-29.92c0-17.37,10.58-24.79,24.68-24.77C218.28,32.56,228,40.5,228,58.1ZM197.8,56.42l0,31.89c0,5,1.41,8.49,5.66,8.49s5.48-3.27,5.49-8.67l0-31.85c0-4.68-1.12-8-5.57-8C199.46,48.23,197.8,51.17,197.8,56.42Z"/><path class="cls-1" d="M282.5,84v2.74c0,14.79-4.1,26-23.46,26-18.32,0-22.82-10.81-22.81-27.78l0-26.67c0-13.42,5.12-25.67,23.7-25.65,20.18,0,22.74,13.46,22.73,24.1v3.84l-18.28,0V55.83c0-5.19-.78-8-4.5-8s-4.6,2.88-4.6,7.91l0,33.8c0,4.51.78,7.86,4.6,7.86s4.5-3.26,4.51-8.41V84Z"/><path class="cls-1" d="M291.32,33.81l19.05,0-.07,77.69-19.05,0Zm.12-25.07h19.05l0,17.15-19,0Z"/><path class="cls-1" d="M366.08,84v2.75c0,14.79-4.1,26-23.46,26C324.3,112.76,319.79,102,319.8,85l0-26.67c0-13.43,5.12-25.67,23.7-25.65,20.18,0,22.74,13.46,22.73,24.1v3.83H348V55.91c0-5.19-.78-8-4.5-8s-4.6,2.88-4.6,7.91l0,33.8c0,4.5.77,7.86,4.59,7.86s4.5-3.26,4.51-8.41V84Zm-15.64,26.43-2.81,4.6c5,1.69,9.59,4.82,9.58,11.48,0,7-5.33,12.61-15.1,12.6a29,29,0,0,1-12.5-2.33l2.84-9.78a16.43,16.43,0,0,0,6.43,1.44c2,0,3.4-.67,3.4-2.29,0-2-2.52-3.43-8.46-4.22v-3.59l4.37-7.92Z"/><path class="cls-1" d="M421.43,93.85c0,7,.09,14.36.43,17.77l-17.72,0a40.84,40.84,0,0,1-1.13-5.71c-3,4.83-7.46,6.83-13.33,6.83-11.91,0-16.65-10.93-16.64-22.8V88.49c0-19.9,13.57-24.66,28.07-24.64h1.28v-9c0-5.24-.74-7.61-4.26-7.61s-4.36,2.56-4.37,7.09V56.1H375.45V54.88c0-13.49,6.19-22.17,23.52-22.15,15.42,0,22.51,7.31,22.5,20.87ZM379.61,26.48V22c0-9.36,3.94-12.84,10.16-12.83,6.88,0,12.32,4.64,15.53,4.64.83,0,1.38,0,1.38-3.22V9.46h10.75v3.95c0,10.68-4.17,13.53-9.66,13.53-6.24,0-11.82-4.85-15.63-4.85-1,0-1.48.46-1.49,3.16v1.23Zm23,50.64h-1.8c-5.59,0-9.26,2.45-9.26,10.56v1c0,5.38,1.76,8.15,5.42,8.15,3.87,0,5.63-2.69,5.63-10.59Z"/><path class="cls-1" d="M480.22,58.34l0,29.18c0,17.15-9.26,25.38-24.9,25.36-15.91,0-24.36-8.45-24.34-25.41l0-29.91c0-17.37,10.57-24.79,24.68-24.78C470.51,32.8,480.24,40.74,480.22,58.34ZM450,56.66l0,31.89c0,5,1.42,8.48,5.67,8.49s5.48-3.27,5.49-8.67l0-31.85c0-4.68-1.12-8-5.57-8C451.69,48.47,450,51.4,450,56.66Z"/><path class="cls-1" d="M509,13.27l25.36,0c16.42,0,24.56,8.67,24.54,26.11v6c0,17.24-6.56,27.64-25.32,27.62H528l0,38.7-19,0Zm19,44.41h3.08c7.22,0,8.75-4,8.76-12.21v-6.8c0-6.36-1.49-10.46-7.83-10.47h-4Z"/><path class="cls-1" d="M611.57,94c0,6.94.09,14.36.43,17.77l-17.72,0a39.3,39.3,0,0,1-1.13-5.72c-3,4.84-7.46,6.84-13.33,6.84-11.91,0-16.65-10.93-16.64-22.8V88.67c0-19.9,13.57-24.66,28.07-24.64h1.28V55c0-5.24-.74-7.61-4.26-7.61s-4.36,2.56-4.37,7.09v1.81l-18.33,0v-1.2c0-13.49,6.19-22.17,23.52-22.15,15.42,0,22.51,7.3,22.49,20.87ZM592.72,77.3h-1.8c-5.59,0-9.26,2.45-9.26,10.56v1c0,5.37,1.77,8.15,5.43,8.15,3.87,0,5.63-2.69,5.63-10.59Z"/><path class="cls-1" d="M622.67,60.5c0-13.3.06-19.66-.18-26.38l18.16,0c.2,1.58.54,8.08.54,11.6C644,36.68,650.24,33,657.51,33l0,22.79c-9.16,0-15.76,1.68-15.78,14.85l0,41.22-19,0Z"/><path class="cls-1" d="M709.67,94.12c0,6.95.1,14.36.44,17.77l-17.72,0a40.9,40.9,0,0,1-1.14-5.71c-3,4.83-7.45,6.83-13.32,6.83-11.92,0-16.65-10.93-16.64-22.8V88.76c0-19.89,13.57-24.65,28.08-24.64h1.28v-9c0-5.24-.74-7.61-4.26-7.61S682,50,682,54.56v1.81H663.7V55.15c0-13.49,6.19-22.16,23.51-22.15,15.42,0,22.52,7.31,22.5,20.87ZM690.83,77.39H689c-5.58,0-9.25,2.46-9.26,10.57v1c0,5.38,1.77,8.15,5.43,8.15,3.87,0,5.62-2.68,5.63-10.59Z"/><path class="cls-1" d="M738.07,77.93l0,11.33c0,5,1.17,8.63,5.47,8.63C748.15,97.89,749,94,749,89V87.27l18.45,0v1.07c0,10.41-3.22,24.81-23.83,24.79-20.08,0-24.4-11.37-24.38-27.32l0-26.31c0-12.77,5.95-26.48,24.5-26.46,16.43,0,24,9.79,24,26.41,0,5,0,13.8,0,18.49Zm11.25-13.44V56.85c0-6-1.31-8.73-5.52-8.74-3.62,0-5.62,2.59-5.63,8.73v7.64Z"/><path class="cls-1" d="M776.65,57.55c0-13.88,0-20.41-.18-23.28h18.25a51.66,51.66,0,0,1,.64,6.58c2.23-3.71,6.44-7.75,14.6-7.74,10.47,0,15.95,6.69,15.94,20.2L825.84,112l-19.05,0,.06-54.69c0-5.29-1.64-7.77-5.18-7.77-4.3,0-6,2.38-6,10.07L795.64,112l-19,0Z"/><path class="cls-1" d="M852.32,86.86V90.5c0,4.29.88,7.86,4.84,7.86,2.93,0,4.4-1.85,4.4-6s-1-7.16-10.24-13C839.67,72,835,66.38,835,55.11c0-14.2,7.85-22,22.31-22,17.43,0,22.24,9.55,22.22,22.69v3.32l-17.57,0V54.44c0-4.91-1.36-6.63-4.21-6.64s-4.12,2.09-4.12,5.63,1.59,5.46,8.3,9.58c14.43,8.92,18.76,15.16,18.75,26.71,0,15.21-6.79,23.56-23.64,23.54-20,0-23-12.33-23-23.55V86.84Z"/><path class="cls-1" d="M906.42,78.09V89.42c0,5,1.17,8.62,5.46,8.63,4.63,0,5.44-3.91,5.44-8.87V87.43l18.44,0v1.07c0,10.41-3.22,24.81-23.82,24.79-20.08,0-24.41-11.37-24.39-27.32l0-26.32c0-12.76,5.95-26.47,24.5-26.46,16.43,0,24,9.79,24,26.41,0,5,0,13.81,0,18.5Zm11.25-13.44V57c0-6-1.3-8.74-5.52-8.74-3.62,0-5.62,2.59-5.63,8.73v7.63Z"/><path class="cls-1" d="M1011.55,9.41l-.07,81c0,11,0,17.66.18,21.73h-18c-.29-2-.58-5.52-.63-7.08-3.05,5.48-7.07,8.3-14.22,8.3-12.41,0-16.54-9.57-16.52-24.83l0-32c0-12.92,4.69-23.31,17.91-23.29,5,0,10.13,1.45,12.3,5.53l0-29.41ZM981.31,58l0,30.61c0,5.31,1.32,8.38,5.47,8.38,4.54,0,5.68-4,5.69-10.62l0-26.06c0-6.92-.78-10.59-5.57-10.6C982.84,49.69,981.32,52.6,981.31,58Z"/><path class="cls-1" d="M1039.79,78.21V89.54c0,5,1.17,8.63,5.47,8.63,4.63,0,5.44-3.9,5.44-8.87V87.56l18.45,0v1.07c0,10.41-3.22,24.81-23.83,24.79-20.08,0-24.4-11.37-24.39-27.33l0-26.31c0-12.77,6-26.48,24.5-26.46,16.43,0,24,9.79,24,26.41,0,5,0,13.81,0,18.49Zm11.26-13.44V57.14c0-6-1.3-8.74-5.51-8.74-3.62,0-5.62,2.59-5.63,8.73v7.63Z"/><path class="cls-1" d="M1114.65,88.85l-2.46,23.42-19.39,0,14.08-98.42,28.36,0,14.22,98.44h-19.78L1127,88.86Zm10.73-16.69C1124,59.56,1122,40.4,1121.11,31h-.75c-.34,6.86-2.71,29-4,41.17Z"/><path class="cls-1" d="M1204.12,106c0,18.6-1.82,32.74-25.79,32.72-18.3,0-23.27-10.48-23.26-20.8v-.4l19,0v.3c0,1.82.59,5.91,5.33,5.91,5.09,0,5.83-3.84,5.84-12.25V102.8c-2.25,4.91-7,7.5-13.13,7.5-14.1,0-17.28-10.9-17.26-24l0-29.71c0-10.52,3.59-23.2,18.48-23.18,7.63,0,11.51,3.33,13,7.92a40.32,40.32,0,0,1,.74-6.73l17.3,0c-.16,4.92-.31,12.3-.32,21.47ZM1174,58.15l0,26.73c0,6.19,1.42,9.1,5.27,9.1,4.63,0,5.88-3.24,5.89-10.68l0-24.28c0-4.66-.53-9.09-5.23-9.1C1176.12,49.92,1174,52.26,1174,58.15Z"/><path class="cls-1" d="M1262.81,106.05c0,18.6-1.82,32.74-25.8,32.72-18.29,0-23.27-10.49-23.26-20.8v-.4l19,0v.29c0,1.83.59,5.91,5.33,5.92,5.09,0,5.83-3.84,5.84-12.26v-8.69c-2.25,4.92-7,7.51-13.13,7.5-14.1,0-17.28-10.9-17.27-23.95l0-29.71c0-10.52,3.59-23.19,18.47-23.18,7.63,0,11.52,3.34,13.05,7.93a40.14,40.14,0,0,1,.75-6.73h17.29c-.15,4.92-.31,12.31-.31,21.47Zm-30.15-47.84,0,26.72c0,6.19,1.41,9.1,5.27,9.11,4.63,0,5.88-3.25,5.88-10.68l0-24.29c0-4.66-.53-9.09-5.23-9.09C1234.81,50,1232.66,52.32,1232.66,58.21Z"/><path class="cls-1" d="M1273.85,61.11c0-13.3.06-19.66-.18-26.38l18.16,0c.2,1.59.54,8.08.54,11.61,2.81-9.07,9.05-12.73,16.32-12.77l0,22.79c-9.17,0-15.77,1.67-15.78,14.84l0,41.22-19,0Z"/><path class="cls-1" d="M1333.52,78.49V89.82c0,5,1.17,8.63,5.47,8.63,4.63,0,5.44-3.91,5.44-8.87V87.83l18.45,0v1.07c0,10.41-3.22,24.81-23.83,24.79-20.08,0-24.4-11.37-24.38-27.32l0-26.31c0-12.77,6-26.48,24.5-26.47,16.43,0,24,9.79,24,26.41,0,5,0,13.81,0,18.5Zm11.26-13.44V57.41c0-6-1.31-8.73-5.52-8.74-3.62,0-5.62,2.59-5.63,8.73V65Z"/><path class="cls-1" d="M1387.76,87.36V91c0,4.3.88,7.86,4.84,7.86,2.93,0,4.4-1.84,4.4-6s-1-7.15-10.24-13c-11.65-7.37-16.31-13-16.3-24.25,0-14.2,7.84-22,22.31-21.94,17.43,0,22.24,9.54,22.22,22.69v3.31l-17.57,0V54.94c0-4.91-1.36-6.63-4.21-6.63s-4.12,2.09-4.12,5.63,1.59,5.45,8.3,9.58c14.43,8.91,18.76,15.15,18.75,26.71,0,15.2-6.79,23.55-23.64,23.53-20,0-23-12.32-23-23.54V87.34Z"/><path class="cls-1" d="M1441,87.41v3.64c0,4.3.88,7.86,4.84,7.86,2.93,0,4.4-1.84,4.41-6s-1-7.15-10.25-13c-11.65-7.37-16.31-13-16.3-24.25,0-14.2,7.85-22,22.31-21.95,17.43,0,22.24,9.55,22.23,22.7v3.31l-17.57,0V55c0-4.91-1.36-6.63-4.21-6.63s-4.12,2.09-4.12,5.63,1.59,5.45,8.3,9.58c14.43,8.91,18.76,15.15,18.75,26.71,0,15.2-6.79,23.55-23.64,23.53-20,0-23-12.32-23-23.54V87.39Z"/><path class="cls-1" d="M1477.94,34.92l19,0-.07,77.69-19,0Zm.12-25.07,19,0V27l-19,0Z"/><path class="cls-1" d="M1523.91,35c2.14,16.31,5,42.52,6.58,57.43h.41c1.28-15.5,5.06-40,7.34-57.42l19,0L1542,112.67l-23.46,0-15-77.7Z"/><path class="cls-1" d="M1580.27,78.72V90.05c0,5,1.17,8.63,5.46,8.63,4.64,0,5.44-3.9,5.45-8.87V88.07h18.44v1.08c0,10.4-3.21,24.81-23.82,24.79-20.08,0-24.41-11.37-24.39-27.33l0-26.31c0-12.77,5.95-26.48,24.5-26.46,16.43,0,24,9.79,24,26.41,0,5,0,13.81,0,18.49Zm11.25-13.44V57.64c0-6-1.3-8.73-5.52-8.74-3.62,0-5.62,2.59-5.63,8.73v7.64Z"/><path class="cls-1" d="M1657.16,14.35l-.09,98.43-19,0,.1-98.43Z"/><path class="cls-1" d="M1668.2,58.39c0-13.88,0-20.41-.18-23.29l18.26,0a53.36,53.36,0,0,1,.64,6.58c2.22-3.71,6.44-7.75,14.6-7.74,10.46,0,15.94,6.69,15.93,20.2l0,58.68-19.05,0,.05-54.7c0-5.28-1.63-7.76-5.18-7.76-4.3,0-6,2.38-6,10.07l0,52.38-19,0Z"/><path class="cls-1" d="M1728.07,14.42l19,0L1747,96.3l23.91,0-1.71,16.57-41.26,0Z"/><path class="cls-1" d="M1777.89,35.21h19l-.07,77.69-19,0Zm.12-25.08,19,0,0,17.14h-19Z"/><path class="cls-1" d="M1808,58.52c0-13.88,0-20.41-.17-23.29l18.25,0a51.49,51.49,0,0,1,.64,6.58c2.22-3.71,6.44-7.75,14.6-7.74,10.46,0,15.94,6.69,15.93,20.2l0,58.68-19.05,0,.05-54.7c0-5.28-1.63-7.76-5.17-7.76-4.31,0-6,2.38-6,10.07l0,52.38-19,0Z"/><path class="cls-1" d="M1885.41,79V90.34c0,5,1.17,8.62,5.46,8.63,4.64,0,5.44-3.91,5.45-8.87V88.35l18.44,0v1.07c0,10.41-3.21,24.81-23.82,24.79-20.08,0-24.4-11.37-24.39-27.32l0-26.32c0-12.76,5.94-26.47,24.49-26.46,16.43,0,24,9.79,24,26.41,0,5,0,13.81,0,18.5Zm11.25-13.44V57.93c0-6-1.3-8.74-5.52-8.74-3.62,0-5.62,2.59-5.62,8.73v7.64Z"/></svg>